<?xml version="1.0" encoding="UTF-8" standalone="no"?><svg xmlns="http://www.w3.org/2000/svg" xmlns:xlink="http://www.w3.org/1999/xlink" contentStyleType="text/css" height="173px" preserveAspectRatio="none" style="width:540px;height:173px;background:#FFFFFF;" version="1.1" viewBox="0 0 540 173" width="540px" zoomAndPan="magnify"><defs/><g><!--MD5=[72136138052d025cffdce3c22fbd185f]
class Product--><g id="elem_Product"><rect codeLine="1" fill="#F1F1F1" height="32" id="Product" rx="2.5" ry="2.5" style="stroke:#181818;stroke-width:0.5;" width="88" x="251.5" y="7"/><ellipse cx="266.5" cy="23" fill="#ADD1B2" rx="11" ry="11" style="stroke:#181818;stroke-width:1.0;"/><path d="M268.8438,18.6719 C267.9063,18.2344 267.3125,18.0938 266.4375,18.0938 C263.8125,18.0938 261.8125,20.1719 261.8125,22.8906 L261.8125,24.0156 C261.8125,26.5938 263.9219,28.4844 266.8125,28.4844 C268.0313,28.4844 269.1875,28.1875 269.9375,27.6406 C270.5156,27.2344 270.8438,26.7813 270.8438,26.3906 C270.8438,25.9375 270.4531,25.5469 269.9844,25.5469 C269.7656,25.5469 269.5625,25.625 269.375,25.8125 C268.9219,26.2969 268.9219,26.2969 268.7344,26.3906 C268.3125,26.6563 267.625,26.7813 266.8594,26.7813 C264.8125,26.7813 263.5156,25.6875 263.5156,23.9844 L263.5156,22.8906 C263.5156,21.1094 264.7656,19.7969 266.5,19.7969 C267.0781,19.7969 267.6875,19.9531 268.1563,20.2031 C268.6406,20.4844 268.8125,20.7031 268.9063,21.1094 C268.9688,21.5156 269,21.6406 269.1406,21.7656 C269.2813,21.9063 269.5156,22.0156 269.7344,22.0156 C270,22.0156 270.2656,21.875 270.4375,21.6563 C270.5469,21.5 270.5781,21.3125 270.5781,20.8906 L270.5781,19.4688 C270.5781,19.0313 270.5625,18.9063 270.4688,18.75 C270.3125,18.4844 270.0313,18.3438 269.7344,18.3438 C269.4375,18.3438 269.2344,18.4375 269.0156,18.75 L268.8438,18.6719 Z " fill="#000000"/><text fill="#000000" font-family="sans-serif" font-size="14" lengthAdjust="spacing" textLength="56" x="280.5" y="27.8467">Product</text></g><!--MD5=[81017da53d0e14e8e8e095d88569155c]
class Line Item--><g id="elem_Line Item"><rect fill="#F1F1F1" height="32" id="Line Item" rx="2.5" ry="2.5" style="stroke:#181818;stroke-width:0.5;" width="100" x="245.5" y="134"/><ellipse cx="260.5" cy="150" fill="#ADD1B2" rx="11" ry="11" style="stroke:#181818;stroke-width:1.0;"/><path d="M262.8438,145.6719 C261.9063,145.2344 261.3125,145.0938 260.4375,145.0938 C257.8125,145.0938 255.8125,147.1719 255.8125,149.8906 L255.8125,151.0156 C255.8125,153.5938 257.9219,155.4844 260.8125,155.4844 C262.0313,155.4844 263.1875,155.1875 263.9375,154.6406 C264.5156,154.2344 264.8438,153.7813 264.8438,153.3906 C264.8438,152.9375 264.4531,152.5469 263.9844,152.5469 C263.7656,152.5469 263.5625,152.625 263.375,152.8125 C262.9219,153.2969 262.9219,153.2969 262.7344,153.3906 C262.3125,153.6563 261.625,153.7813 260.8594,153.7813 C258.8125,153.7813 257.5156,152.6875 257.5156,150.9844 L257.5156,149.8906 C257.5156,148.1094 258.7656,146.7969 260.5,146.7969 C261.0781,146.7969 261.6875,146.9531 262.1563,147.2031 C262.6406,147.4844 262.8125,147.7031 262.9063,148.1094 C262.9688,148.5156 263,148.6406 263.1406,148.7656 C263.2813,148.9063 263.5156,149.0156 263.7344,149.0156 C264,149.0156 264.2656,148.875 264.4375,148.6563 C264.5469,148.5 264.5781,148.3125 264.5781,147.8906 L264.5781,146.4688 C264.5781,146.0313 264.5625,145.9063 264.4688,145.75 C264.3125,145.4844 264.0313,145.3438 263.7344,145.3438 C263.4375,145.3438 263.2344,145.4375 263.0156,145.75 L262.8438,145.6719 Z " fill="#000000"/><text fill="#000000" font-family="sans-serif" font-size="14" lengthAdjust="spacing" textLength="68" x="274.5" y="154.8467">Line Item</text></g><!--MD5=[a608780e30028417ceff2d6f0d878efa]
class Cart--><g id="elem_Cart"><rect fill="#F1F1F1" height="32" id="Cart" rx="2.5" ry="2.5" style="stroke:#181818;stroke-width:0.5;" width="63" x="7" y="134"/><ellipse cx="22" cy="150" fill="#ADD1B2" rx="11" ry="11" style="stroke:#181818;stroke-width:1.0;"/><path d="M24.3438,145.6719 C23.4063,145.2344 22.8125,145.0938 21.9375,145.0938 C19.3125,145.0938 17.3125,147.1719 17.3125,149.8906 L17.3125,151.0156 C17.3125,153.5938 19.4219,155.4844 22.3125,155.4844 C23.5313,155.4844 24.6875,155.1875 25.4375,154.6406 C26.0156,154.2344 26.3438,153.7813 26.3438,153.3906 C26.3438,152.9375 25.9531,152.5469 25.4844,152.5469 C25.2656,152.5469 25.0625,152.625 24.875,152.8125 C24.4219,153.2969 24.4219,153.2969 24.2344,153.3906 C23.8125,153.6563 23.125,153.7813 22.3594,153.7813 C20.3125,153.7813 19.0156,152.6875 19.0156,150.9844 L19.0156,149.8906 C19.0156,148.1094 20.2656,146.7969 22,146.7969 C22.5781,146.7969 23.1875,146.9531 23.6563,147.2031 C24.1406,147.4844 24.3125,147.7031 24.4063,148.1094 C24.4688,148.5156 24.5,148.6406 24.6406,148.7656 C24.7813,148.9063 25.0156,149.0156 25.2344,149.0156 C25.5,149.0156 25.7656,148.875 25.9375,148.6563 C26.0469,148.5 26.0781,148.3125 26.0781,147.8906 L26.0781,146.4688 C26.0781,146.0313 26.0625,145.9063 25.9688,145.75 C25.8125,145.4844 25.5313,145.3438 25.2344,145.3438 C24.9375,145.3438 24.7344,145.4375 24.5156,145.75 L24.3438,145.6719 Z " fill="#000000"/><text fill="#000000" font-family="sans-serif" font-size="14" lengthAdjust="spacing" textLength="31" x="36" y="154.8467">Cart</text></g><!--MD5=[f896e3df9658f3b3d2a7662d78af15af]
link Product to Line Item--><g id="link_Product_Line Item"><path codeLine="4" d="M295.5,39.327 C295.5,63.449 295.5,109.9817 295.5,133.9376 " fill="none" id="Product-Line Item" style="stroke:#181818;stroke-width:1.0;"/><polygon fill="#000000" points="300.5,91.5664,303.4389,82.5213,297.5611,82.5213,300.5,91.5664" style="stroke:#000000;stroke-width:1.0;"/><text fill="#000000" font-family="sans-serif" font-size="13" lengthAdjust="spacing" textLength="85" x="309.5" y="91.0669">referenced in</text><path d="M400.5,74 L400.5,99 L533.5,99 L533.5,84 L523.5,74 L400.5,74 " fill="#FEFFDD" style="stroke:#181818;stroke-width:0.5;"/><path d="M523.5,74 L523.5,84 L533.5,84 L523.5,74 " fill="#FEFFDD" style="stroke:#181818;stroke-width:0.5;"/><text fill="#000000" font-family="sans-serif" font-size="13" lengthAdjust="spacing" textLength="112" x="406.5" y="91.0669">Prevents deletion</text><text fill="#000000" font-family="sans-serif" font-size="13" lengthAdjust="spacing" textLength="8" x="286.225" y="59.0099">1</text><text fill="#000000" font-family="sans-serif" font-size="13" lengthAdjust="spacing" textLength="24" x="267.375" y="122.9277">0..n</text></g><!--MD5=[9408072a27adb5d44b14d777453d26bb]
reverse link Cart to Line Item--><g id="link_Cart_Line Item"><path codeLine="7" d="M83.1937,150 C128.367,150 198.048,150 245.147,150 " fill="none" id="Cart-backto-Line Item" style="stroke:#181818;stroke-width:1.0;"/><polygon fill="#181818" points="70.0132,150,76.0132,154,82.0132,150,76.0132,146,70.0132,150" style="stroke:#181818;stroke-width:1.0;"/><path d="M92.25,100 L92.25,125 L223.25,125 L223.25,110 L213.25,100 L92.25,100 " fill="#FEFFDD" style="stroke:#181818;stroke-width:0.5;"/><path d="M213.25,100 L213.25,110 L223.25,110 L213.25,100 " fill="#FEFFDD" style="stroke:#181818;stroke-width:0.5;"/><text fill="#000000" font-family="sans-serif" font-size="13" lengthAdjust="spacing" textLength="110" x="98.25" y="117.0669">Cascading delete</text><polygon fill="#000000" points="133.25,138.6992,124.2049,135.7603,124.2049,141.6381,133.25,138.6992" style="stroke:#000000;stroke-width:1.0;"/><text fill="#000000" font-family="sans-serif" font-size="13" lengthAdjust="spacing" textLength="54" x="137.25" y="143.1997">contains</text><text fill="#000000" font-family="sans-serif" font-size="13" lengthAdjust="spacing" textLength="8" x="77.7817" y="145.4408">1</text><text fill="#000000" font-family="sans-serif" font-size="13" lengthAdjust="spacing" textLength="24" x="213.5477" y="162.9891">0..n</text></g>
<!--
@startuml
class Product
hide members

Product "1" - - "0..n" "Line Item" : referenced in >
note right on link: Prevents deletion

Cart "1" *- "0..n" "Line Item" : contains >
note top on link: Cascading delete
@enduml
-->
</g></svg>